<?xml version="1.0" encoding="UTF-8" standalone="no"?>
<svg id="svg5591" xmlns:rdf="http://www.w3.org/1999/02/22-rdf-syntax-ns#" xmlns="http://www.w3.org/2000/svg" viewBox="0 0 204.39 204.36" version="1.1" xmlns:cc="http://creativecommons.org/ns#" xmlns:dc="http://purl.org/dc/elements/1.1/">
<g id="layer1" transform="translate(-432.08901,-155.89395)">
<path id="path2990" stroke-linejoin="miter" style="marker-start:none;" d="m-112.86,110.29c0,52.467-42.533,95-95,95s-95-42.533-95-95,42.533-95,95-95,95,42.533,95,95z" transform="matrix(1.0598668,0,0,1.0598668,754.58424,141.18356)" stroke-dashoffset="1.2" stroke="#F55" stroke-miterlimit="3.5999999" stroke-dasharray="none" stroke-width="2.83054447" fill="none"/>
<g id="g6635" transform="matrix(-5.7076046,0,0,5.7076046,450.69794,11.277657)" stroke="#FFF" stroke-dasharray="none" stroke-miterlimit="4" stroke-width="0.4117232" fill="#FFF">
<g id="g6591" stroke="#FFF" stroke-miterlimit="4" stroke-dasharray="none" fill="#FFF"><path id="path6593" d="m2.7966,18.08,2.0741,2.4553s0.73205,1.0357,1.2584,0.25916c0.52633-0.7748,3.6816-7.1709,3.6816-7.1709s0.31615-0.52187,0.53791,0.41055c0.22175,0.93243,2.043,5.4441,2.043,5.4441s0.27519,0.38027,0.60559,0.09974c0.33129-0.27786,1.6565-1.3955,1.6565-1.3955s0.44707-0.1416-0.01603-1.025c-0.46399-0.88612-2.1641-4.9168-2.1641-4.9168s-0.24847-0.51653,0.11132-0.81932c0.3589-0.3019,0.82289-0.64834,0.82289-0.64834s0.20661-0.42658,0.77569,0.02315c0.56818,0.44885,2.1979,2.0991,4.7084,2.7198,2.5096,0.62251,4.7067,0.70622,4.7067,0.70622s0.5379,0.01959,0.6136-0.89858c0.02567-0.78451,0.2896-2.7742-0.45419-2.8302-0.53701-0.0187-1.449,0.18613-2.5987-0.16832-1.1497-0.35267-3.7475-2.2531-3.7475-2.2531s-0.41679-0.32684-0.03028-0.65457c0.38651-0.32595,3.0912-2.6076,3.0912-2.6076s0.46399-0.34643,0.18435-0.67772c-0.279-0.3306-0.419-0.4963-0.419-0.4963l3.408-3.1748-0.933-1.1043-3.408,3.1731-0.403-0.3643s-0.3589-0.31259-0.66258-0.056106c-0.30279,0.25292-3.4732,2.8819-3.4732,2.8819s-0.49872-0.012376-1.1604,0.54601c-0.66169,0.55839-2.5169,2.8705-4.1518,3.7828-0.32626,0.18208-0.90369-0.02195-1.0775,0.30878-0.121,0.23021,0.31839,0.4892,0.24831,0.73965-0.18165,0.64916-1.5451,1.3047-1.5451,1.3047s-0.36246,0.35356-0.31704,1.025c0.04631,0.66971-0.32417,1.4053-1.0411,2.0127-0.71602,0.60559-2.783,2.303-2.783,2.303s-0.60648,0.51386-0.1416,1.066z" stroke-width="0.36666852"/><path id="path6597" d="m12.873,13.045s0.474-0.32557,0.75259-0.56056,0.54832-0.76288,0.31605-1.4617c-0.23159-0.69817,0.68114,0.10013,0.68114,0.10013s0.47884,1.098-0.33785,1.7866c-0.82009,0.69408-1.1511,0.85966-1.1511,0.85966l-0.308-0.708z" stroke-width="0.28044111"/></g></g>
<path id="path2994-3-4" opacity="0.98000004" d="m-21.429,328.14c0,51.284-41.574,92.857-92.857,92.857-51.284,0-92.857-41.574-92.857-92.857,0-51.284,41.574-92.857,92.857-92.857,51.284,0,92.857,41.574,92.857,92.857z" stroke-opacity="0" transform="matrix(0.94078064,0,0,0.94078064,641.80114,-50.638713)" stroke-miterlimit="3.9000001" fill="#F55"/>
<g id="g6635-1-2" transform="matrix(-5.7076046,0,0,5.7076046,611.04949,199.74088)" stroke="#FFF" stroke-dasharray="none" stroke-miterlimit="4" stroke-width="0.41172320000000001" fill="#FFF">
<g id="g6591-0-5" stroke="#FFF" stroke-miterlimit="4" stroke-dasharray="none" fill="#FFF">
<path id="path6593-5-7" d="m3.2391,17.726,1.6317,2.8093s0.73205,1.0357,1.2584,0.25916c0.52633-0.7748,3.6816-7.1709,3.6816-7.1709s0.31615-0.52187,0.53791,0.41055c0.22175,0.93243,2.043,5.4441,2.043,5.4441s0.27519,0.38027,0.60559,0.09974c0.33129-0.27786,1.6565-1.3955,1.6565-1.3955s0.44707-0.1416-0.01603-1.025c-0.46399-0.88612-2.1641-4.9168-2.1641-4.9168s-0.24847-0.51653,0.11132-0.81932c0.3589-0.3019,0.82289-0.64834,0.82289-0.64834s0.20661-0.42658,0.77569,0.02315c0.56818,0.44885,2.1979,2.0991,4.7084,2.7198,2.5096,0.62251,4.7067,0.70622,4.7067,0.70622s0.5379,0.01959,0.6136-0.89858c0.02567-0.78451,0.2896-2.7742-0.45419-2.8302-0.53701-0.0187-1.449,0.18613-2.5987-0.16832-1.1497-0.35267-3.7475-2.2531-3.7475-2.2531s-0.41679-0.32684-0.03028-0.65457c0.38651-0.32595,2.339-2.1209,2.339-2.1209s0.46399-0.34643,0.18435-0.67772c-0.279-0.3306-0.419-0.4962-0.419-0.4962l4.16-3.6616-0.933-1.1043-4.16,3.6598-0.404-0.3643s-0.35821-0.31177-0.66258-0.056106c-0.3021,0.25375-2.6095,2.4975-2.721,2.3952l-1.454-1.3499-0.479,0.4077,1.207,1.3836c0.16,0.1463-0.755,0.7163-1.193,1.0806-0.439,0.3642-0.962,0.7975-1.465,1.2133s-0.984,0.8142-1.341,1.1086c-0.3557,0.2945-0.5863,0.4849-0.5863,0.4849l-0.97,0.93893c-0.58838,0.4458-1.4044,1.4142-1.4044,1.4142s-0.36246,0.35356-0.31704,1.025c0.04631,0.66971-0.32417,1.4053-1.0411,2.0127-0.71602,0.60559-2.783,2.303-2.783,2.303s-0.16402,0.15989,0.30086,0.71205z" stroke-width="0.36666852"/><path id="path6597-8-3" d="m12.873,13.045s0.474-0.32557,0.75259-0.56056,0.54832-0.76288,0.31605-1.4617c-0.23159-0.69817,0.68114,0.10013,0.68114,0.10013s0.47884,1.098-0.33785,1.7866c-0.82009,0.69408-1.1511,0.85966-1.1511,0.85966l-0.308-0.708z" stroke-width="0.28044110999999999"/></g></g></g></svg>
