<?xml version="1.0" encoding="UTF-8" standalone="no"?>
<svg id="svg4401" xmlns:rdf="http://www.w3.org/1999/02/22-rdf-syntax-ns#" xmlns="http://www.w3.org/2000/svg" xmlns:osb="http://www.openswatchbook.org/uri/2009/osb" viewBox="0 0 161 161" version="1.1" xmlns:cc="http://creativecommons.org/ns#" xmlns:dc="http://purl.org/dc/elements/1.1/">
<g id="layer1" transform="translate(294.11633,-407.66106)">
<g id="g4505" transform="matrix(0.76275281,0,0,0.76275281,-291.56715,410.22106)">
<path id="path2990" stroke-linejoin="miter" style="marker-start:none;" d="m-112.86,110.29c0,52.467-42.533,95-95,95s-95-42.533-95-95,42.533-95,95-95,95,42.533,95,95z" transform="matrix(1.0598668,0,0,1.0598668,322.49759,-14.705652)" stroke-dashoffset="1.2" stroke="#FD5" stroke-miterlimit="3.5999999" stroke-dasharray="none" stroke-width="2.83054447" fill="none"/>
<path id="path2994" opacity="0.98000004" d="m-21.429,328.14c0,51.284-41.574,92.857-92.857,92.857-51.284,0-92.857-41.574-92.857-92.857,0-51.284,41.574-92.857,92.857-92.857,51.284,0,92.857,41.574,92.857,92.857z" stroke-opacity="0" transform="matrix(0.94078064,0,0,0.94078064,209.71449,-206.52793)" stroke-miterlimit="3.9000001" fill="#FD5"/></g><path id="path5447" opacity="0.98000004" stroke-linejoin="bevel" d="m-246.52,509.83c0-27.952,0.0432-26.426-0.76082-26.847-0.2488-0.13028-1.8212-0.19001-5.6808-0.21576l-5.3368-0.0356,22.29-21.055c12.259-11.58,22.339-21.049,22.4-21.042,0.0608,0.007,10.136,9.4821,22.39,21.055l22.28,21.042-5.3678,0.0387c-5.1254,0.037-5.3867,0.0521-5.7879,0.33779-0.24248,0.17267-0.48423,0.53004-0.57177,0.84523-0.10133,0.36479-0.15194,9.0428-0.15248,26.142l-0.00069,25.595h-9.4991-9.4991l-0.0393-16.069-0.0393-16.069-0.4694-0.41941c-0.29247-0.2613-0.70894-0.45397-1.1048-0.51113-0.34948-0.0505-6.0712-0.0717-12.715-0.0472-13.273,0.0489-12.51-0.006-12.963,0.94924-0.19211,0.40483-0.22095,2.5333-0.22095,16.316v15.851h-9.5753-9.5753v-25.861z" stroke="#FFF" stroke-miterlimit="3.9000001" stroke-dasharray="none" stroke-width="2.47484183" fill="#FFF"/>
</g></svg>
