<?xml version="1.0" encoding="UTF-8" standalone="no"?>
<svg id="svg3390" xmlns:rdf="http://www.w3.org/1999/02/22-rdf-syntax-ns#" xmlns="http://www.w3.org/2000/svg" height="177.09" width="201.77" version="1.1" xmlns:cc="http://creativecommons.org/ns#" xmlns:dc="http://purl.org/dc/elements/1.1/" viewBox="0 0 200.39146 176.49231">
<g id="g3295" transform="matrix(3.8542107,0,0,3.7792264,9.6598242,9.9226314)">
<g id="g3248">
<g id="Layer_1_78_">
<g id="g3251">
<path id="path3255" d="m4.805,37.165c-1.18,0-2.136,0.956-2.136,2.136s0.956,2.137,2.136,2.137h37.37c1.18,0,2.136-0.957,2.136-2.137s-0.956-2.136-2.136-2.136h-0.533v-19.22h0.533c0.591,0,1.067-0.478,1.067-1.067s-0.478-1.067-1.067-1.067h-37.37c-0.59,0-1.067,0.478-1.067,1.067s0.478,1.067,1.067,1.067h0.534v19.219h-0.534zm32.565-19.22v19.219h-6.406v-19.219h6.406zm-10.678,0v19.219h-6.406v-19.219h6.406zm-17.083,0h6.406v19.219h-6.406v-19.219z"/>
<path id="path3257" d="m2.136,13.891h42.708,0.021c1.181,0,2.136-0.956,2.136-2.136,0-0.938-0.604-1.733-1.443-2.021l-21.19-9.535c-0.557-0.25-1.194-0.25-1.752,0l-21.356,9.609c-0.919,0.414-1.424,1.412-1.212,2.396,0.211,0.984,1.081,1.687,2.088,1.687z"/>
</g></g></g></g>
<g id="g3438" fill="#FFF" transform="matrix(0.090769,0,0,0.090769,78.261194,16.826389)">
<g id="g3398" fill="#FFF">
<path id="path3400" fill="#FFF" d="m309.43,219.94c-19-10.5-39.2-18.5-59.2-26.8-11.6-4.8-22.7-10.4-32.5-18.2-19.3-15.4-15.6-40.4,7-50.3,6.4-2.8,13.1-3.7,19.9-4.1,26.2-1.4,51.1,3.4,74.8,14.8,11.8,5.7,15.7,3.9,19.7-8.4,4.2-13,7.7-26.2,11.6-39.3,2.6-8.8-0.6-14.6-8.9-18.3-15.2-6.7-30.8-11.5-47.2-14.1-21.4-3.3-21.4-3.4-21.5-24.9-0.1-30.3-0.1-30.3-30.5-30.3-4.4,0-8.8-0.1-13.2,0-14.2,0.4-16.6,2.9-17,17.2-0.2,6.4,0,12.8-0.1,19.3-0.1,19-0.2,18.7-18.4,25.3-44,16-71.2,46-74.1,94-2.6,42.5,19.6,71.2,54.5,92.1,21.5,12.9,45.3,20.5,68.1,30.6,8.9,3.9,17.4,8.4,24.8,14.6,21.9,18.1,17.9,48.2-8.1,59.6-13.9,6.1-28.6,7.6-43.7,5.7-23.3-2.9-45.6-9-66.6-19.9-12.3-6.4-15.9-4.7-20.1,8.6-3.6,11.5-6.8,23.1-10,34.7-4.3,15.6-2.7,19.3,12.2,26.6,19,9.2,39.3,13.9,60,17.2,16.2,2.6,16.7,3.3,16.9,20.1,0.1,7.6,0.1,15.3,0.2,22.9,0.1,9.6,4.7,15.2,14.6,15.4,11.2,0.2,22.5,0.2,33.7-0.1,9.2-0.2,13.9-5.2,13.9-14.5,0-10.4,0.5-20.9,0.1-31.3-0.5-10.6,4.1-16,14.3-18.8,23.5-6.4,43.5-19,58.9-37.8,42.8-52,26.5-128.1-34.1-161.6z"/>
</g>
</g>
</svg>
