<?xml version="1.0" encoding="UTF-8" standalone="no"?>
<!-- Created with Inkscape (http://www.inkscape.org/) -->

<svg
   xmlns:dc="http://purl.org/dc/elements/1.1/"
   xmlns:cc="http://creativecommons.org/ns#"
   xmlns:rdf="http://www.w3.org/1999/02/22-rdf-syntax-ns#"
   xmlns:svg="http://www.w3.org/2000/svg"
   xmlns="http://www.w3.org/2000/svg"
   xmlns:sodipodi="http://sodipodi.sourceforge.net/DTD/sodipodi-0.dtd"
   xmlns:inkscape="http://www.inkscape.org/namespaces/inkscape"
   version="1.1"
   width="201.76825"
   height="177.09279"
   viewBox="0 0 200.39146 176.49231"
   id="svg3390"
   inkscape:version="0.48.4 r9939"
   sodipodi:docname="Bank.svg">
  <metadata
     id="metadata3067">
    <rdf:RDF>
      <cc:Work
         rdf:about="">
        <dc:format>image/svg+xml</dc:format>
        <dc:type
           rdf:resource="http://purl.org/dc/dcmitype/StillImage" />
      </cc:Work>
    </rdf:RDF>
  </metadata>
  <defs
     id="defs3065" />
  <sodipodi:namedview
     pagecolor="#ffffff"
     bordercolor="#666666"
     borderopacity="1"
     objecttolerance="10"
     gridtolerance="10"
     guidetolerance="10"
     inkscape:pageopacity="0.45098039"
     inkscape:pageshadow="2"
     inkscape:window-width="640"
     inkscape:window-height="480"
     id="namedview3063"
     showgrid="false"
     fit-margin-top="10"
     fit-margin-left="10"
     fit-margin-right="10"
     fit-margin-bottom="10"
     inkscape:zoom="2.2399978"
     inkscape:cx="83.931854"
     inkscape:cy="106.00272"
     inkscape:window-x="0"
     inkscape:window-y="0"
     inkscape:window-maximized="0"
     inkscape:current-layer="svg3390"
     showguides="true"
     inkscape:guide-bbox="true"
     inkscape:showpageshadow="false"
     borderlayer="true"
     showborder="false" />
  <g
     id="g3295"
     transform="matrix(3.8542107,0,0,3.7792264,9.6598242,9.9226314)">
    <g
       id="g3248">
      <g
         id="Layer_1_78_">
        <g
           id="g3251">
          <path
             id="path3255"
             d="m 4.805,37.165 c -1.18,0 -2.136,0.956 -2.136,2.136 0,1.18 0.956,2.137 2.136,2.137 h 37.37 c 1.18,0 2.136,-0.957 2.136,-2.137 0,-1.18 -0.956,-2.136 -2.136,-2.136 h -0.533 v -19.22 h 0.533 c 0.591,0 1.067,-0.478 1.067,-1.067 0,-0.589 -0.478,-1.067 -1.067,-1.067 H 4.805 c -0.59,0 -1.067,0.478 -1.067,1.067 0,0.589 0.478,1.067 1.067,1.067 H 5.339 V 37.164 H 4.805 z M 37.37,17.945 V 37.164 H 30.964 V 17.945 h 6.406 z m -10.678,0 V 37.164 H 20.286 V 17.945 h 6.406 z m -17.083,0 h 6.406 V 37.164 H 9.609 V 17.945 z"
             inkscape:connector-curvature="0" />
          <path
             id="path3257"
             d="m 2.136,13.891 h 42.708 c 0.007,0 0.015,0 0.021,0 1.181,0 2.136,-0.956 2.136,-2.136 0,-0.938 -0.604,-1.733 -1.443,-2.021 L 24.368,0.199 c -0.557,-0.25 -1.194,-0.25 -1.752,0 L 1.26,9.808 c -0.919,0.414 -1.424,1.412 -1.212,2.396 0.211,0.984 1.081,1.687 2.088,1.687 z"
             inkscape:connector-curvature="0" />
        </g>
      </g>
    </g>
    <g
       id="g3259" />
    <g
       id="g3261" />
    <g
       id="g3263" />
    <g
       id="g3265" />
    <g
       id="g3267" />
    <g
       id="g3269" />
    <g
       id="g3271" />
    <g
       id="g3273" />
    <g
       id="g3275" />
    <g
       id="g3277" />
    <g
       id="g3279" />
    <g
       id="g3281" />
    <g
       id="g3283" />
    <g
       id="g3285" />
    <g
       id="g3287" />
  </g>
  <g
     id="g3438"
     transform="matrix(0.090769,0,0,0.090769,78.261194,16.826389)"
     style="fill:#ffffff">
    <g
       id="g3398"
       style="fill:#ffffff">
      <path
         id="path3400"
         d="m 309.43,219.944 c -19,-10.5 -39.2,-18.5 -59.2,-26.8 -11.6,-4.8 -22.7,-10.4 -32.5,-18.2 -19.3,-15.4 -15.6,-40.4 7,-50.3 6.4,-2.8 13.1,-3.7 19.9,-4.1 26.2,-1.4 51.1,3.4 74.8,14.8 11.8,5.7 15.7,3.9 19.7,-8.4 4.2,-13 7.7,-26.2 11.6,-39.3 2.6,-8.8 -0.6,-14.6 -8.9,-18.3 -15.2,-6.7 -30.8,-11.5 -47.2,-14.1 -21.4,-3.3 -21.4,-3.4 -21.5,-24.9 -0.1,-30.3 -0.1,-30.3 -30.5,-30.3 -4.4,0 -8.8,-0.1 -13.2,0 -14.2,0.4 -16.6,2.9 -17,17.2 -0.2,6.4 0,12.8 -0.1,19.3 -0.1,19 -0.2,18.7 -18.4,25.3 -44,16 -71.2,46 -74.1,94 -2.6,42.5 19.6,71.2 54.5,92.1 21.5,12.9 45.3,20.5 68.1,30.6 8.9,3.9 17.4,8.4 24.8,14.6 21.9,18.1 17.9,48.2 -8.1,59.6 -13.9,6.1 -28.6,7.6 -43.7,5.7 -23.3,-2.9 -45.6,-9 -66.6,-19.9 -12.3,-6.4 -15.9,-4.7 -20.1,8.6 -3.6,11.5 -6.8,23.1 -10,34.7 -4.3,15.6 -2.7,19.3 12.2,26.6 19,9.2 39.3,13.9 60,17.2 16.2,2.6 16.7,3.3 16.9,20.1 0.1,7.6 0.1,15.3 0.2,22.9 0.1,9.6 4.7,15.2 14.6,15.4 11.2,0.2 22.5,0.2 33.7,-0.1 9.2,-0.2 13.9,-5.2 13.9,-14.5 0,-10.4 0.5,-20.9 0.1,-31.3 -0.5,-10.6 4.1,-16 14.3,-18.8 23.5,-6.4 43.5,-19 58.9,-37.8 42.8,-52 26.5,-128.1 -34.1,-161.6 z"
         inkscape:connector-curvature="0"
         style="fill:#ffffff" />
    </g>
    <g
       id="g3402"
       style="fill:#ffffff" />
    <g
       id="g3404"
       style="fill:#ffffff" />
    <g
       id="g3406"
       style="fill:#ffffff" />
    <g
       id="g3408"
       style="fill:#ffffff" />
    <g
       id="g3410"
       style="fill:#ffffff" />
    <g
       id="g3412"
       style="fill:#ffffff" />
    <g
       id="g3414"
       style="fill:#ffffff" />
    <g
       id="g3416"
       style="fill:#ffffff" />
    <g
       id="g3418"
       style="fill:#ffffff" />
    <g
       id="g3420"
       style="fill:#ffffff" />
    <g
       id="g3422"
       style="fill:#ffffff" />
    <g
       id="g3424"
       style="fill:#ffffff" />
    <g
       id="g3426"
       style="fill:#ffffff" />
    <g
       id="g3428"
       style="fill:#ffffff" />
    <g
       id="g3430"
       style="fill:#ffffff" />
  </g>
</svg>
