<?xml version="1.0" encoding="UTF-8" standalone="no"?>
<!-- Generator: Adobe Illustrator 16.0.0, SVG Export Plug-In . SVG Version: 6.00 Build 0)  -->

<svg
   xmlns:dc="http://purl.org/dc/elements/1.1/"
   xmlns:cc="http://creativecommons.org/ns#"
   xmlns:rdf="http://www.w3.org/1999/02/22-rdf-syntax-ns#"
   xmlns:svg="http://www.w3.org/2000/svg"
   xmlns="http://www.w3.org/2000/svg"
   xmlns:sodipodi="http://sodipodi.sourceforge.net/DTD/sodipodi-0.dtd"
   xmlns:inkscape="http://www.inkscape.org/namespaces/inkscape"
   version="1.1"
   id="Capa_1"
   x="0px"
   y="0px"
   width="503.607px"
   height="503.607px"
   viewBox="0 0 503.607 503.607"
   style="enable-background:new 0 0 503.607 503.607;"
   xml:space="preserve"
   inkscape:version="0.48.4 r9939"
   sodipodi:docname="Boat.svg"><metadata
     id="metadata6487"><rdf:RDF><cc:Work
         rdf:about=""><dc:format>image/svg+xml</dc:format><dc:type
           rdf:resource="http://purl.org/dc/dcmitype/StillImage" /></cc:Work></rdf:RDF></metadata><defs
     id="defs6485" /><sodipodi:namedview
     pagecolor="#ffffff"
     bordercolor="#666666"
     borderopacity="1"
     objecttolerance="10"
     gridtolerance="10"
     guidetolerance="10"
     inkscape:pageopacity="0"
     inkscape:pageshadow="2"
     inkscape:window-width="1024"
     inkscape:window-height="748"
     id="namedview6483"
     showgrid="false"
     inkscape:zoom="0.23430969"
     inkscape:cx="-530.20687"
     inkscape:cy="-250.92014"
     inkscape:window-x="-3"
     inkscape:window-y="-3"
     inkscape:window-maximized="1"
     inkscape:current-layer="g6447" /><g
     id="g6445"><g
       id="g6447"
       transform="translate(0,-4.5267448)"><path
         style="opacity:0.98000004;fill:#000000;fill-opacity:1;stroke:#ffffff;stroke-width:0.96171141;stroke-linejoin:bevel;stroke-miterlimit:3.9000001;stroke-opacity:1"
         d="m 234.94596,67.075412 c 0,-11.238361 33.71509,-11.238361 33.71509,0 l 0,58.634938 -33.71509,0 z"
         id="rect6508"
         inkscape:connector-curvature="0"
         sodipodi:nodetypes="ssccs" /><path
         style="opacity:0.98000004;fill:#000000;fill-opacity:1;stroke:#ffffff;stroke-width:3.46429706;stroke-linejoin:bevel;stroke-miterlimit:3.9000001;stroke-opacity:1"
         d="m 109.48423,129.66516 -0.875,108.625 136.125,-43.90625 152.4375,44.875 0.84375,-106 c 0.21313,-26.77581 -288.36549,-24.17135 -288.53125,-3.59375 z"
         id="rect6505"
         inkscape:connector-curvature="0"
         sodipodi:nodetypes="scccss" /><path
         d="m 84.103997,434.57349 c 2.854,1.887 5.274,3.814 7.366,5.488 5.178,4.146 6.922002,5.543 12.323003,5.543 5.402,0 7.146,-1.396 12.324,-5.543 7.067,-5.658 17.746,-14.207 37.012,-14.207 19.266,0 29.944,8.549 37.011,14.207 5.178,4.146 6.921,5.543 12.322,5.543 5.401,0 7.146,-1.396 12.323,-5.543 7.066,-5.658 17.745,-14.207 37.011,-14.207 19.265,0 29.945,8.549 37.011,14.207 5.179,4.145 6.922,5.543 12.324,5.543 5.402,0 7.146,-1.396 12.324,-5.543 7.066,-5.658 17.746,-14.207 37.012,-14.207 19.266,0 29.945,8.549 37.012,14.207 5.182,4.145 6.924,5.543 12.328,5.543 5.404,0 7.15,-1.398 12.328,-5.543 2.094,-1.676 4.514,-3.605 7.369,-5.49 l 0,-44.727 19.617,-132.733 -195.85371,-57.64156 -178.781291,57.64056 19.617,132.733 z"
         id="path6449-0"
         inkscape:connector-curvature="0"
         sodipodi:nodetypes="ccscscscscscscscccccccc" /><path
         style="opacity:0.98000004;fill:#ffffff;fill-opacity:1;stroke:#ffffff;stroke-width:1.39999998;stroke-linejoin:bevel;stroke-miterlimit:3.9000001;stroke-opacity:1"
         d="m 148.53433,144.67053 31.68722,0 c 10.05943,0 10.05943,30.1783 0,30.1783 l -31.68722,0 c -10.05943,0 -10.05943,-30.1783 0,-30.1783 z"
         id="rect6532"
         inkscape:connector-curvature="0"
         sodipodi:nodetypes="sssss" /><path
         style="opacity:0.98000004;fill:#ffffff;fill-opacity:1;stroke:#ffffff;stroke-width:1.39999998;stroke-linejoin:bevel;stroke-miterlimit:3.9000001;stroke-opacity:1"
         d="m 207.68534,144.14737 31.68722,0 c 10.05943,0 10.05943,30.1783 0,30.1783 l -31.68722,0 c -10.05943,0 -10.05943,-30.1783 0,-30.1783 z"
         id="rect6532-6"
         inkscape:connector-curvature="0"
         sodipodi:nodetypes="sssss" /><path
         style="opacity:0.98000004;fill:#ffffff;fill-opacity:1;stroke:#ffffff;stroke-width:1.39999998;stroke-linejoin:bevel;stroke-miterlimit:3.9000001;stroke-opacity:1"
         d="m 269.03577,144.14737 31.68722,0 c 10.05943,0 10.05943,30.1783 0,30.1783 l -31.68722,0 c -10.05943,0 -10.05943,-30.1783 0,-30.1783 z"
         id="rect6532-1"
         inkscape:connector-curvature="0"
         sodipodi:nodetypes="sssss" /><path
         style="opacity:0.98000004;fill:#ffffff;fill-opacity:1;stroke:#ffffff;stroke-width:1.39999998;stroke-linejoin:bevel;stroke-miterlimit:3.9000001;stroke-opacity:1"
         d="m 326.65183,144.14738 31.68722,0 c 10.05943,0 10.05943,30.1783 0,30.1783 l -31.68722,0 c -10.05943,0 -10.05943,-30.1783 0,-30.1783 z"
         id="rect6532-2"
         inkscape:connector-curvature="0"
         sodipodi:nodetypes="sssss" /></g></g><g
     id="g6453" /><g
     id="g6455" /><g
     id="g6457" /><g
     id="g6459" /><g
     id="g6461" /><g
     id="g6463" /><g
     id="g6465" /><g
     id="g6467" /><g
     id="g6469" /><g
     id="g6471" /><g
     id="g6473" /><g
     id="g6475" /><g
     id="g6477" /><g
     id="g6479" /><g
     id="g6481" /></svg>