<?xml version="1.0" encoding="UTF-8" standalone="no"?>
<svg id="Capa_1" xmlns:rdf="http://www.w3.org/1999/02/22-rdf-syntax-ns#" style="enable-background:new 0 0 503.607 503.607;" xmlns="http://www.w3.org/2000/svg" xml:space="preserve" height="503.61px" viewBox="0 0 503.607 503.607" width="503.61px" version="1.1" y="0px" x="0px" xmlns:cc="http://creativecommons.org/ns#" xmlns:dc="http://purl.org/dc/elements/1.1/"><g id="g6445"><g id="g6447" transform="translate(0,-4.5267448)"><path id="rect6508" opacity="0.98000004" stroke-linejoin="bevel" d="m234.95,67.075c0-11.238,33.715-11.238,33.715,0v58.635h-33.715z" stroke="#FFF" stroke-miterlimit="3.9000001" stroke-width="0.96171141" fill="#000"/><path id="rect6505" opacity="0.98000004" stroke-linejoin="bevel" d="m109.48,129.67-0.875,108.62,136.12-43.906,152.44,44.875,0.84375-106c0.21313-26.776-288.37-24.171-288.53-3.5938z" stroke="#FFF" stroke-miterlimit="3.9000001" stroke-width="3.46429706" fill="#000"/><path id="path6449-0" d="m84.104,434.57c2.854,1.887,5.274,3.814,7.366,5.488,5.178,4.146,6.922,5.543,12.323,5.543,5.402,0,7.146-1.396,12.324-5.543,7.067-5.658,17.746-14.207,37.012-14.207s29.944,8.549,37.011,14.207c5.178,4.146,6.921,5.543,12.322,5.543s7.146-1.396,12.323-5.543c7.066-5.658,17.745-14.207,37.011-14.207,19.265,0,29.945,8.549,37.011,14.207,5.179,4.145,6.922,5.543,12.324,5.543s7.146-1.396,12.324-5.543c7.066-5.658,17.746-14.207,37.012-14.207s29.945,8.549,37.012,14.207c5.182,4.145,6.924,5.543,12.328,5.543s7.15-1.398,12.328-5.543c2.094-1.676,4.514-3.605,7.369-5.49v-44.727l19.617-132.73-195.85-57.642-178.78,57.641,19.617,132.73z"/><path id="rect6532" opacity="0.98000004" stroke-linejoin="bevel" d="m148.53,144.67,31.687,0c10.059,0,10.059,30.178,0,30.178h-31.687c-10.059,0-10.059-30.178,0-30.178z" stroke="#FFF" stroke-miterlimit="3.9000001" stroke-width="1.39999998" fill="#FFF"/><path id="rect6532-6" opacity="0.98000004" stroke-linejoin="bevel" d="m207.69,144.15,31.687,0c10.059,0,10.059,30.178,0,30.178h-31.687c-10.059,0-10.059-30.178,0-30.178z" stroke="#FFF" stroke-miterlimit="3.9000001" stroke-width="1.39999998" fill="#FFF"/><path id="rect6532-1" opacity="0.98000004" stroke-linejoin="bevel" d="m269.04,144.15,31.687,0c10.059,0,10.059,30.178,0,30.178h-31.687c-10.059,0-10.059-30.178,0-30.178z" stroke="#FFF" stroke-miterlimit="3.9000001" stroke-width="1.39999998" fill="#FFF"/><path id="rect6532-2" opacity="0.98000004" stroke-linejoin="bevel" d="m326.65,144.15,31.687,0c10.059,0,10.059,30.178,0,30.178h-31.687c-10.059,0-10.059-30.178,0-30.178z" stroke="#FFF" stroke-miterlimit="3.9000001" stroke-width="1.39999998" fill="#FFF"/></g></g></svg>
