<?xml version="1.0" encoding="UTF-8" standalone="no"?>
<svg id="Capa_1" xmlns:rdf="http://www.w3.org/1999/02/22-rdf-syntax-ns#" xmlns="http://www.w3.org/2000/svg" xml:space="preserve" height="173.65" viewBox="0 0 209.99999 173.65266" width="210" version="1.1" y="0px" x="0px" xmlns:cc="http://creativecommons.org/ns#" xmlns:dc="http://purl.org/dc/elements/1.1/"><g id="g3" transform="matrix(0.39196508,0,0,0.39196508,9.9999973,-8.1738529)"><g id="g5"><path id="path7" d="m131.01,438.37h85.624v-87.557h51.467v87.557h85.624v-392h-222.71v392.01zm126.98-345.81h51.466v51.467h-51.467v-51.466zm0,82.715h51.466v51.467h-51.466v-51.467zm0,82.713h51.466v51.467h-51.467v-51.468zm-82.71-165.43h51.466v51.467h-51.471v-51.466zm0,82.715h51.466v51.467h-51.466v-51.467zm0,82.713h51.466v51.467h-51.466v-51.467z"/><path id="path9" d="M373.72,81.482v277.18h33.065v79.712h77.954v-356.89h-111.01zm70.718,239.53h-46.86v-46.856h46.856v46.856zm0-75.306h-46.86v-46.855h46.856v46.855zm0-75.305h-46.86v-46.855h46.856v46.855z"/><path id="path11" d="M0,438.37h77.954v-79.71h33.065v-277.18h-111.02v356.89zm40.302-314.83h46.856v46.855h-46.856v-46.855zm0,75.305h46.856v46.855h-46.856v-46.855zm0,75.303h46.856v46.855h-46.856v-46.855z"/></g></g></svg>
