<?xml version="1.0" encoding="UTF-8" standalone="no"?>
<svg id="Layer_1" xmlns:rdf="http://www.w3.org/1999/02/22-rdf-syntax-ns#" xmlns="http://www.w3.org/2000/svg" enable-background="new 0 0 512 512" xml:space="preserve" height="221" viewBox="0 0 163.70302 220.99999" width="163.7" version="1.1" y="0px" x="0px" xmlns:cc="http://creativecommons.org/ns#" xmlns:dc="http://purl.org/dc/elements/1.1/"><g id="g3624" fill="#000" transform="matrix(0.42442886,0,0,0.42442886,-35.61107,33.505929)"><path id="path3628" d="m446.04,243.89c0-46.371-25.365-86.751-62.928-108.24,0.11054,1.7858,0.30315,3.55,0.30315,5.3655,0,32.79-48.154,106.84-79.765,151.91l-12.957-63.569,13.748-13.748c1.6411-1.6411,1.6422-4.3034,0.001-5.9456l-5.3313-5.3359c-3.2868-3.2902-7.7462-5.1387-12.396-5.1387h-19.949c-4.6509,0-9.1104,1.8485-12.397,5.1387l-5.3313,5.337c-1.64,1.6422-1.6388,4.3033,0.002,5.9456l13.747,13.748-12.962,63.569c-31.605-45.083-79.759-119.12-79.759-151.91,0-1.8143,0.19033-3.5797,0.32367-5.3655-37.562,21.484-62.928,61.861-62.928,108.24,13.886,231.36,329.3,233.46,338.58-0.001z"/><path id="path3848" d="m274.03-55.382c-58.562,0-106.07,47.505-106.07,106.07,0,58.562,47.505,105.98,106.07,105.98,58.562,0,106.07-47.421,106.07-105.98,0-58.562-47.505-106.07-106.07-106.07zm0,22.486c46.13,0,83.496,37.451,83.496,83.581s-37.366,83.496-83.496,83.496-83.496-37.366-83.496-83.496,37.366-83.581,83.496-83.581z"/></g></svg>
