<?xml version="1.0" encoding="UTF-8" standalone="no"?>
 Generator: Adobe Illustrator 16.0.0, SVG Export Plug-In . SVG Version: 6.00 Build 0)  

<svg
   xmlns:dc="http://purl.org/dc/elements/1.1/"
   xmlns:cc="http://creativecommons.org/ns#"
   xmlns:rdf="http://www.w3.org/1999/02/22-rdf-syntax-ns#"
   xmlns:svg="http://www.w3.org/2000/svg"
   xmlns="http://www.w3.org/2000/svg"
   xmlns:sodipodi="http://sodipodi.sourceforge.net/DTD/sodipodi-0.dtd"
   xmlns:inkscape="http://www.inkscape.org/namespaces/inkscape"
   version="1.1"
   id="Layer_1"
   x="0px"
   y="0px"
   width="163.70302"
   height="220.99998"
   viewBox="0 0 163.70302 220.99999"
   enable-background="new 0 0 512 512"
   xml:space="preserve"
   inkscape:version="0.48.4 r9939"
   sodipodi:docname="human.svg"><metadata
     id="metadata3640"><rdf:RDF><cc:Work
         rdf:about=""><dc:format>image/svg+xml</dc:format><dc:type
           rdf:resource="http://purl.org/dc/dcmitype/StillImage" /></cc:Work></rdf:RDF></metadata><defs
     id="defs3638" /><sodipodi:namedview
     pagecolor="#ffffff"
     bordercolor="#666666"
     borderopacity="1"
     objecttolerance="10"
     gridtolerance="10"
     guidetolerance="10"
     inkscape:pageopacity="0"
     inkscape:pageshadow="2"
     inkscape:window-width="1280"
     inkscape:window-height="1004"
     id="namedview3636"
     showgrid="false"
     fit-margin-top="10"
     fit-margin-left="10"
     fit-margin-right="10"
     fit-margin-bottom="10"
     inkscape:zoom="0.921875"
     inkscape:cx="216.641"
     inkscape:cy="130.83958"
     inkscape:window-x="-3"
     inkscape:window-y="-3"
     inkscape:window-maximized="1"
     inkscape:current-layer="g3624"
     borderlayer="false"
     showborder="true"
     inkscape:showpageshadow="true" /><g
     style="fill:#000000;display:inline"
     id="g3624"
     transform="matrix(0.42442886,0,0,0.42442886,-35.61107,33.505929)"><path
       d="m 446.04433,243.88571 c 0,-46.37147 -25.36533,-86.75063 -62.9284,-108.24226 0.11054,1.78584 0.30315,3.55003 0.30315,5.3655 0,32.79019 -48.1539,106.83707 -79.76454,151.91047 l -12.95675,-63.56888 13.74767,-13.74767 c 1.6411,-1.64111 1.64224,-4.30335 10e-4,-5.94559 l -5.33131,-5.33587 c -3.28677,-3.29019 -7.74625,-5.13871 -12.39604,-5.13871 l -19.94855,0 c -4.65093,0 -9.11041,1.84852 -12.39718,5.13871 l -5.33131,5.33701 c -1.63996,1.64224 -1.63882,4.30334 0.002,5.94559 l 13.74653,13.74767 -12.96244,63.56888 c -31.60495,-45.08252 -79.75885,-119.12028 -79.75885,-151.91047 0,-1.81433 0.19033,-3.57966 0.32367,-5.3655 -37.56193,21.48366 -62.9284,61.86054 -62.9284,108.24226 13.88611,231.35593 329.29833,233.46393 338.57933,-0.001 z"
       id="path3628"
       style="fill:#000000"
       inkscape:connector-curvature="0"
       sodipodi:nodetypes="ccsccsccsscccccsccc" /><path
       style="fill:#000000"
       d="m 274.03211,-55.382495 c -58.56186,0 -106.06727,47.5054055 -106.06727,106.067265 0,58.56186 47.50541,105.98241 106.06727,105.98241 58.56186,0 106.06727,-47.42055 106.06727,-105.98241 0,-58.5618595 -47.50541,-106.067265 -106.06727,-106.067265 z m 0,22.486261 c 46.13031,0 83.49615,37.4506976 83.49615,83.581004 0,46.130306 -37.36584,83.49615 -83.49615,83.49615 -46.1303,0 -83.49615,-37.365844 -83.49615,-83.49615 0,-46.1303064 37.36585,-83.581004 83.49615,-83.581004 z"
       id="path3848"
       inkscape:connector-curvature="0" /></g></svg>