<?xml version="1.0" encoding="UTF-8" standalone="no"?>
<svg id="svg5554" xmlns:rdf="http://www.w3.org/1999/02/22-rdf-syntax-ns#" xmlns="http://www.w3.org/2000/svg" viewBox="0 0 204.37 204.37" version="1.1" xmlns:cc="http://creativecommons.org/ns#" xmlns:dc="http://purl.org/dc/elements/1.1/">
<g id="layer1" transform="translate(-249.24122,-121.60341)">
<g id="layer1-1" transform="translate(57.14286,-354.28571)">
<path id="path2990" stroke-linejoin="miter" style="marker-start:none;" d="m-112.86,110.29c0,52.467-42.533,95-95,95s-95-42.533-95-95,42.533-95,95-95,95,42.533,95,95z" transform="matrix(1.0598668,0,0,1.0598668,514.5866,461.1883)" stroke-dashoffset="1.19999999999999996" stroke="#95F" stroke-miterlimit="3.59999989999999981" stroke-dasharray="none" stroke-width="2.83054446999999998" fill="none"/>
<path id="path2994" opacity="0.98000004" d="m-21.429,328.14c0,51.284-41.574,92.857-92.857,92.857-51.284,0-92.857-41.574-92.857-92.857,0-51.284,41.574-92.857,92.857-92.857,51.284,0,92.857,41.574,92.857,92.857z" stroke-opacity="0" transform="matrix(0.94078064,0,0,0.94078064,401.8035,269.36602)" stroke-miterlimit="3.9000001" fill="#95F"/>
<g id="g6318" transform="matrix(0.40931398,0,0,0.40931398,129.51931,417.70447)" stroke="#FFF" stroke-miterlimit="4" stroke-dasharray="none" stroke-width="7.06277132000000041" fill="#FFF">
<g id="g6278" transform="matrix(0.60648498,0,0,0.60648498,226.39363,196.76924)" stroke="#FFF" stroke-miterlimit="4" stroke-dasharray="none" stroke-width="11.64541816999999924" fill="#FFF">
<path id="path6280" d="m454.72,467.09c-2.9042,0-5.2812,2.3508-5.2812,5.2812v75.5h-40.781c3.8544,3.3526,6.5156,8.0066,7.2812,13.312h43.062c1.5049-10.48,10.534-18.594,21.438-18.594,10.903,0,19.938,8.1131,21.469,18.594h14.938v-13.312-35.875c0-4.1973-1.2754-8.3275-3.625-11.812l-16.062-23.812c-3.9075-5.808-10.478-9.2812-17.5-9.2812zm-54.843,1.9634c-2.9158,0-5.2812,2.3652-5.2812,5.2812v23.75c0,2.9158,2.3655,5.2812,5.2812,5.2812h36.938c2.9161,0,5.2816-2.3655,5.2812-5.2812v-23.75c0-2.9161-2.3652-5.2812-5.2812-5.2812zm-46.958,4.3707c-2.4904,0-4.5,0.7992-4.5,4.5312v20.281c0,2.4907,2.0096,4.5,4.5,4.5h30c2.4907,0,4.5-2.0093,4.5-4.5v-20.281c0-2.4907-2.0093-4.5312-4.5-4.5312zm111.14,8.0096h20.031c0.87095,0,1.72,0.40203,2.1875,1.0938l13.444,19.893c0.9861,1.4591,1.5506,3.0905,1.5506,5.0461v4.5059c0,1.9355-0.49467,2.6164-1.6738,2.6164h-35.54c-1.4521,0-2.625-1.138-2.625-2.6164v-27.914c0-1.4521,1.1735-2.625,2.625-2.625zm-119.28,27.75c-2.9158,0-5.2812,2.3652-5.2812,5.2812v21.556c0,2.9161,2.3655,5.2812,5.2812,5.2812h30.78c2.9161,0,5.2812-2.3652,5.2812-5.2812v-21.556c0-2.9161-2.3652-5.2812-5.2812-5.2812zm49,0.34375c-2.9161,0-5.2812,2.3652-5.2812,5.2812v22.433c0,2.9158,2.3652,5.2812,5.2812,5.2812h42.607c2.9161,0,5.2809-2.3658,5.2812-5.2812v-22.433c0-2.9158-2.3652-5.2812-5.2812-5.2812zm-50.25,38.344c-1.4579,0-2.625,1.1984-2.625,2.6562v8c0,1.4579,1.1671,2.625,2.625,2.625h29.5c0.77058-5.2852,3.4456-9.9463,7.3125-13.281zm50.969,0c-9.0816,0-16.438,7.3515-16.438,16.406,0,9.0813,7.3559,16.469,16.438,16.469,9.0551,0,16.438-7.3877,16.438-16.469,0-9.0548-7.3824-16.406-16.438-16.406zm85.938,0c-9.0554,0-16.406,7.3515-16.406,16.406,0,9.0813,7.3512,16.469,16.406,16.469,9.0813,0,16.406-7.3877,16.406-16.469,0.00031-9.0548-7.3249-16.406-16.406-16.406zm-85.94,8.23c4.514,0,8.2188,3.6729,8.2188,8.1875,0,4.5408-3.7045,8.25-8.2188,8.25-4.5408,0-8.2188-3.7092-8.2188-8.25,0-4.5143,3.6779-8.1875,8.2188-8.1875zm85.938,0c4.5405,0,8.2188,3.6729,8.2188,8.1875,0.00031,4.5408-3.6782,8.25-8.2188,8.25-4.5408,0-8.2188-3.7092-8.2188-8.25,0-4.5143,3.6779-8.1875,8.2188-8.1875z" transform="matrix(3.2780445,0,0,3.2780445,-1118.947,-1403.6538)" stroke="#FFF" stroke-dasharray="none" stroke-miterlimit="4" stroke-width="3.55255054999999986" fill="#FFF"/>
</g>
</g>
</g>
</g>
</svg>
