<?xml version="1.0" encoding="UTF-8" standalone="no"?>
<svg id="Capa_1" xmlns:rdf="http://www.w3.org/1999/02/22-rdf-syntax-ns#" xmlns="http://www.w3.org/2000/svg" xml:space="preserve" height="220" viewBox="0 0 155.27013 220" width="155.27" version="1.1" y="0px" x="0px" xmlns:cc="http://creativecommons.org/ns#" xmlns:dc="http://purl.org/dc/elements/1.1/"><path id="path3628-5-6" d="m144.28,142.35c0-18.256-9.9859-34.152-24.774-42.613,0.0436,0.70305,0.11934,1.3976,0.11934,2.1123,0,12.909-18.933,49.713-40.384,50.118-22.141,0.41851-43.608-37.209-43.608-50.118,0-0.71426,0.07495-1.4092,0.12742-2.1123-14.787,8.4577-24.774,24.353-24.774,42.613,5.4667,91.081,129.64,91.911,133.29-0.00043z" fill="#000"/><path id="path3848" fill="#000" d="m76.545,10c-24.526,0-44.421,19.895-44.421,44.421s19.895,44.385,44.421,44.385,44.421-19.86,44.421-44.385c0-24.526-19.895-44.421-44.421-44.421zm0,9.4172c19.319,0,34.968,15.684,34.968,35.003s-15.649,34.968-34.968,34.968-34.968-15.649-34.968-34.968,15.649-35.003,34.968-35.003z"/><path id="path3628-5" fill="#FFF" d="m22.463,110.97c-2.5606,3.0491-4.7662,6.4175-6.5312,10.031h26.219c-1.8964-3.5167-3.4567-6.9321-4.5625-10.031h-15.125zm95.406,0c-1.0015,3.1052-2.4176,6.5136-4.1562,10.031h25.625c-1.7655-3.616-3.9691-6.9801-6.5312-10.031h-14.938zm-105.59,20.28c-0.75473,3.2288-1.1694,6.5903-1.25,10.031h46.188c-3.1138-3.0063-6.02-6.4398-8.625-10.031h-36.312zm95.469,0c-2.4176,3.5902-5.0998,7.0271-8.0312,10.031h44.531c-0.0808-3.4476-0.4923-6.7964-1.25-10.031h-35.25zm-95.781,20.25c0.54873,3.4917,1.2815,6.8455,2.1875,10.031h127.38c0.83274-3.189,1.4951-6.5328,1.9688-10.031h-59.969c-1.4195,0.34031-2.8338,0.53514-4.2812,0.5625-1.6821,0.0318-3.366-0.18262-5.0312-0.5625h-62.25zm5.875,20.25c1.6049,3.5885,3.476,6.9327,5.5312,10.031h109.47c1.9694-3.0945,3.7043-6.4444,5.2188-10.031h-120.22zm13.875,20.25c4.0025,3.9864,8.4395,7.3241,13.156,10.062h67.062c4.6125-2.7294,8.9341-6.0887,12.812-10.062h-93.031z"/></svg>
