<?xml version="1.0" encoding="UTF-8" standalone="no"?>
<!-- Generator: Adobe Illustrator 16.0.0, SVG Export Plug-In . SVG Version: 6.00 Build 0)  -->

<svg
   xmlns:dc="http://purl.org/dc/elements/1.1/"
   xmlns:cc="http://creativecommons.org/ns#"
   xmlns:rdf="http://www.w3.org/1999/02/22-rdf-syntax-ns#"
   xmlns:svg="http://www.w3.org/2000/svg"
   xmlns="http://www.w3.org/2000/svg"
   xmlns:sodipodi="http://sodipodi.sourceforge.net/DTD/sodipodi-0.dtd"
   xmlns:inkscape="http://www.inkscape.org/namespaces/inkscape"
   version="1.1"
   id="Capa_1"
   x="0px"
   y="0px"
   width="155.27013"
   height="220"
   viewBox="0 0 155.27013 220"
   xml:space="preserve"
   inkscape:version="0.48.4 r9939"
   sodipodi:docname="prisoner.svg"><metadata
     id="metadata3803"><rdf:RDF><cc:Work
         rdf:about=""><dc:format>image/svg+xml</dc:format><dc:type
           rdf:resource="http://purl.org/dc/dcmitype/StillImage" /><dc:title /></cc:Work></rdf:RDF></metadata><defs
     id="defs3801" /><sodipodi:namedview
     pagecolor="#ffffff"
     bordercolor="#666666"
     borderopacity="1"
     objecttolerance="10"
     gridtolerance="10"
     guidetolerance="10"
     inkscape:pageopacity="0"
     inkscape:pageshadow="2"
     inkscape:window-width="1280"
     inkscape:window-height="1004"
     id="namedview3799"
     showgrid="false"
     fit-margin-top="10"
     fit-margin-left="10"
     fit-margin-right="10"
     fit-margin-bottom="10"
     inkscape:zoom="1.8099872"
     inkscape:cx="54.833632"
     inkscape:cy="42.98542"
     inkscape:window-x="-3"
     inkscape:window-y="53"
     inkscape:window-maximized="1"
     inkscape:current-layer="Capa_1" /><path
     sodipodi:nodetypes="ccsasccc"
     inkscape:connector-curvature="0"
     style="fill:#000000"
     id="path3628-5-6"
     d="m 144.28138,142.35398 c 0,-18.25563 -9.9859,-34.1522 -24.77378,-42.613083 0.0436,0.703053 0.11934,1.397593 0.11934,2.112313 0,12.90893 -18.93324,49.71258 -40.383965,50.11804 -22.140565,0.41851 -43.607858,-37.20867 -43.607858,-50.1176 0,-0.71426 0.07495,-1.40923 0.127422,-2.112293 -14.787461,8.457743 -24.77379,24.353403 -24.77379,42.613053 5.466711,91.08069 129.638851,91.91058 133.292631,-4.3e-4 z" /><g
     id="g3769"
     transform="translate(-20.084399,-54.193912)" /><g
     id="g3771"
     transform="translate(-20.084399,-54.193912)" /><g
     id="g3773"
     transform="translate(-20.084399,-54.193912)" /><g
     id="g3775"
     transform="translate(-20.084399,-54.193912)" /><g
     id="g3777"
     transform="translate(-20.084399,-54.193912)" /><g
     id="g3779"
     transform="translate(-20.084399,-54.193912)" /><g
     id="g3781"
     transform="translate(-20.084399,-54.193912)" /><g
     id="g3783"
     transform="translate(-20.084399,-54.193912)" /><g
     id="g3785"
     transform="translate(-20.084399,-54.193912)" /><g
     id="g3787"
     transform="translate(-20.084399,-54.193912)" /><g
     id="g3789"
     transform="translate(-20.084399,-54.193912)" /><g
     id="g3791"
     transform="translate(-20.084399,-54.193912)" /><g
     id="g3793"
     transform="translate(-20.084399,-54.193912)" /><g
     id="g3795"
     transform="translate(-20.084399,-54.193912)" /><g
     id="g3797"
     transform="translate(-20.084399,-54.193912)" /><path
     inkscape:connector-curvature="0"
     style="fill:#000000;display:inline"
     d="m 76.544738,9.9999985 c -24.525507,0 -44.420626,19.8951175 -44.420626,44.4206265 0,24.525519 19.895119,44.38509 44.420626,44.38509 24.525522,0 44.420642,-19.859571 44.420642,-44.38509 0,-24.525509 -19.89512,-44.4206265 -44.420642,-44.4206265 z m 0,9.4171725 c 19.319232,0 34.967942,15.684232 34.967942,35.003454 0,19.319223 -15.64871,34.967918 -34.967942,34.967918 -19.319222,0 -34.967917,-15.648695 -34.967917,-34.967918 0,-19.319222 15.648695,-35.003454 34.967917,-35.003454 z"
     id="path3848" /><path
     style="fill:#ffffff"
     d="m 22.46319,110.96857 c -2.560632,3.04913 -4.76624,6.41754 -6.53125,10.03125 l 26.21875,0 c -1.896426,-3.51672 -3.456665,-6.93206 -4.5625,-10.03125 l -15.125,0 z m 95.40625,0 c -1.00146,3.10521 -2.41758,6.5136 -4.15625,10.03125 l 25.625,0 c -1.7655,-3.616 -3.96914,-6.98006 -6.53125,-10.03125 l -14.9375,0 z M 12.27569,131.24982 c -0.754728,3.22881 -1.169388,6.59027 -1.25,10.03125 l 46.1875,0 c -3.113766,-3.00634 -6.02002,-6.43985 -8.625,-10.03125 l -36.3125,0 z m 95.46875,0 c -2.41755,3.59025 -5.09979,7.02708 -8.03125,10.03125 l 44.53125,0 c -0.0808,-3.44765 -0.4923,-6.79642 -1.25,-10.03125 l -35.25,0 z m -95.78125,20.25 c 0.548734,3.49173 1.281451,6.84546 2.1875,10.03125 l 127.375,0 c 0.83274,-3.18902 1.4951,-6.53283 1.96875,-10.03125 l -59.96875,0 c -1.419504,0.34031 -2.833776,0.53514 -4.28125,0.5625 -1.682097,0.0318 -3.366043,-0.18262 -5.03125,-0.5625 l -62.25,0 z m 5.875,20.25 c 1.604948,3.58847 3.475983,6.93266 5.53125,10.03125 l 109.46875,0 c 1.96942,-3.09451 3.70432,-6.44443 5.21875,-10.03125 l -120.21875,0 z m 13.875,20.25 c 4.002458,3.98639 8.439486,7.32407 13.15625,10.0625 l 67.0625,0 c 4.61254,-2.72936 8.93406,-6.08873 12.8125,-10.0625 l -93.03125,0 z"
     id="path3628-5"
     inkscape:connector-curvature="0" /></svg>