<?xml version="1.0" encoding="UTF-8" standalone="no"?>
<svg id="svg5664" xmlns:rdf="http://www.w3.org/1999/02/22-rdf-syntax-ns#" xmlns="http://www.w3.org/2000/svg" xmlns:osb="http://www.openswatchbook.org/uri/2009/osb" viewBox="0 0 204.39 204.36" version="1.1" xmlns:cc="http://creativecommons.org/ns#" xmlns:dc="http://purl.org/dc/elements/1.1/">
<defs id="defs5668"></defs>
<path id="path2990" stroke-linejoin="miter" style="marker-start:none;" d="m-112.86,110.29a95,95,0,1,1,-190,0,95,95,0,1,1,190,0z" transform="matrix(1.0598668,0,0,1.0598668,322.49759,-14.705652)" stroke-dashoffset="1.19999999999999996" stroke="#F95" stroke-miterlimit="3.59999989999999981" stroke-dasharray="none" stroke-width="2.83054446999999998" fill="none"/>
<path id="path2994" opacity="0.98000004" d="m-21.429,328.14a92.857,92.857,0,1,1,-185.71,0,92.857,92.857,0,1,1,185.71,0z" stroke-opacity="0" transform="matrix(0.94078064,0,0,0.94078064,209.71449,-206.52793)" stroke-miterlimit="3.9000001" fill="#F95"/>
<g id="g3124" transform="matrix(0.40255693,0,0,0.40255693,366.95241,489.03737)" stroke="#FFF" stroke-miterlimit="4" stroke-dasharray="none" stroke-width="5.17259358999999996" fill="#FFF">
<g id="g3080" transform="matrix(0.58539945,-0.51864497,0.51864497,0.58539945,-908.21401,-978.97027)" stroke="#FFF" stroke-miterlimit="4" stroke-dasharray="none" stroke-width="6.61369848000000005" fill="#FFF">
<g id="g3082" stroke="#FFF" stroke-miterlimit="4" stroke-dasharray="none" fill="#FFF">
<path id="path3084" d="M408.5,151.9h-22.5c-3.7-19.8-11.4-38.2-22.3-54.2l15.8-15.8c5.9-5.9,5.9-15.5,0-21.4l-16.5-16.5c-5.9-5.9-15.5-5.9-21.4,0l-15.7,15.7c-16-11-34.4-18.8-54.3-22.6v-22c0-8.3-6.8-15.1-15.1-15.1h-23.3c-8.3,0-15.1,6.8-15.1,15.1v22.1c-19.8,3.8-38.2,11.6-54.3,22.6l-15.7-15.7c-5.9-5.9-15.5-5.9-21.4,0l-16.5,16.5c-5.9,5.9-5.9,15.5,0,21.4l15.8,15.8c-10.9,16-18.6,34.4-22.3,54.2h-22.4c-8.3,0-15.1,6.8-15.1,15.1v23.3c0,8.3,6.8,15.1,15.1,15.1h22.7c3.8,19.7,11.6,37.9,22.5,53.8l-16.2,16.2c-5.9,5.9-5.9,15.5,0,21.4l16.5,16.5c5.9,5.9,15.5,5.9,21.4,0l16.3-16.3c5.6,3.8,11.4,7.2,17.5,10.2v-53.6c-21.7-18-35.4-45.2-35.4-75.6,0-54.3,44-98.4,98.4-98.4,54.3,0,98.4,44,98.4,98.4,0,30.4-13.8,57.6-35.4,75.6v53.6c6.1-3,12-6.4,17.5-10.2l16.3,16.3c5.9,5.9,15.5,5.9,21.4,0l16.5-16.5c5.9-5.9,5.9-15.5,0-21.4l-16.2-16.2c10.9-15.9,18.7-34.1,22.5-53.8h22.7c8.3,0,15.1-6.8,15.1-15.1v-23.4c-0.2-8.3-7-15.1-15.3-15.1z" stroke-width="6.61369848000000005"/>
<path id="path3086" d="m283.8,124.8c-2.6-1.9-6.2-0.1-6.2,3.1v28.1c0,13.3-10.8,24.1-24.1,24.1h-17.2c-13.3,0-24.1-10.8-24.1-24.1v-28.1c0-3.2-3.6-5-6.2-3.1-16.1,11.9-26.6,31.1-26.6,52.7,0,21.2,10.1,40,25.7,52,6.9,5.3,10.9,13.4,10.9,22.1v209.6c0,15.9,13,28.8,28.9,28.8,16,0,28.9-12.9,28.9-28.8v-209.7c0-8.7,4-16.8,10.9-22.1,15.6-12,25.7-30.8,25.7-52,0-21.5-10.4-40.7-26.6-52.6zm-38.9,348.53z" stroke-width="6.61369848"/>
</g>
</g>
</g>
</svg>
