<?xml version="1.0" encoding="UTF-8" standalone="no"?>
<!-- Generator: Adobe Illustrator 16.0.0, SVG Export Plug-In . SVG Version: 6.00 Build 0)  -->

<svg
   xmlns:dc="http://purl.org/dc/elements/1.1/"
   xmlns:cc="http://creativecommons.org/ns#"
   xmlns:rdf="http://www.w3.org/1999/02/22-rdf-syntax-ns#"
   xmlns:svg="http://www.w3.org/2000/svg"
   xmlns="http://www.w3.org/2000/svg"
   xmlns:sodipodi="http://sodipodi.sourceforge.net/DTD/sodipodi-0.dtd"
   xmlns:inkscape="http://www.inkscape.org/namespaces/inkscape"
   version="1.1"
   id="Capa_1"
   x="0px"
   y="0px"
   width="153.29263"
   height="215.72548"
   viewBox="0 0 153.29264 215.72548"
   xml:space="preserve"
   inkscape:version="0.48.4 r9939"
   sodipodi:docname="terrorist.svg"><metadata
     id="metadata3803"><rdf:RDF><cc:Work
         rdf:about=""><dc:format>image/svg+xml</dc:format><dc:type
           rdf:resource="http://purl.org/dc/dcmitype/StillImage" /><dc:title /></cc:Work></rdf:RDF></metadata><defs
     id="defs3801" /><sodipodi:namedview
     pagecolor="#ffffff"
     bordercolor="#666666"
     borderopacity="1"
     objecttolerance="10"
     gridtolerance="10"
     guidetolerance="10"
     inkscape:pageopacity="0"
     inkscape:pageshadow="2"
     inkscape:window-width="1280"
     inkscape:window-height="1004"
     id="namedview3799"
     showgrid="false"
     fit-margin-top="10"
     fit-margin-left="10"
     fit-margin-right="10"
     fit-margin-bottom="10"
     inkscape:zoom="0.63992713"
     inkscape:cx="75.103268"
     inkscape:cy="75.791163"
     inkscape:window-x="-3"
     inkscape:window-y="-3"
     inkscape:window-maximized="1"
     inkscape:current-layer="Capa_1" /><g
     id="g3765"
     transform="matrix(2.0219267,0,0,2.0219267,-18.040085,9.9999985)"><path
       d="m 23.516224,22.256 c 0,-12.292 9.964,-22.256 22.257,-22.256 12.291,0 22.256,9.964 22.256,22.256 0,12.292 -9.965,22.256 -22.256,22.256 -12.293,0 -22.257,-9.964 -22.257,-22.256 z m 30.007,12.623 c 0,-2.461 -3.472,-4.456 -7.75,-4.456 -4.281,0 -7.75,1.995 -7.75,4.456 0,2.46 3.469,4.455 7.75,4.455 4.278,0 7.75,-1.995 7.75,-4.455 z m -15.584,-8.457 c 3.135,0 4.728324,-6.600719 8.224669,-6.514695 3.295712,0.08109 4.305331,6.514695 7.441331,6.514695 5.707,0 10.334,-3.347 10.334,-7.474 0,-4.129 -6.114518,-7.997314 -10.334,-7.476 -3.827354,0.472867 -4.965837,8.859365 -7.441331,8.858712 C 43.686225,20.330058 41.074224,11.472 37.939224,11.472 c -5.707,0 -10.334,3.347 -10.334,7.476 0,4.127 4.627,7.474 10.334,7.474 z"
       id="path3767"
       inkscape:connector-curvature="0"
       sodipodi:nodetypes="ssssssssssssssassss" /></g><g
     id="g3769"
     transform="translate(-20.053149,-58.481974)" /><g
     id="g3771"
     transform="translate(-20.053149,-58.481974)" /><g
     id="g3773"
     transform="translate(-20.053149,-58.481974)" /><g
     id="g3775"
     transform="translate(-20.053149,-58.481974)" /><g
     id="g3777"
     transform="translate(-20.053149,-58.481974)" /><g
     id="g3779"
     transform="translate(-20.053149,-58.481974)" /><g
     id="g3781"
     transform="translate(-20.053149,-58.481974)" /><g
     id="g3783"
     transform="translate(-20.053149,-58.481974)" /><g
     id="g3785"
     transform="translate(-20.053149,-58.481974)" /><g
     id="g3787"
     transform="translate(-20.053149,-58.481974)" /><g
     id="g3789"
     transform="translate(-20.053149,-58.481974)" /><g
     id="g3791"
     transform="translate(-20.053149,-58.481974)" /><g
     id="g3793"
     transform="translate(-20.053149,-58.481974)" /><g
     id="g3795"
     transform="translate(-20.053149,-58.481974)" /><g
     id="g3797"
     transform="translate(-20.053149,-58.481974)" /><path
     d="m 143.29263,137.10304 c 0,-18.25563 -9.9859,-34.15219 -24.77378,-42.613069 0.0436,0.70305 0.11934,1.397588 0.11934,2.112308 0,12.908921 -18.933244,49.712561 -40.383968,50.118021 -22.140564,0.41851 -43.607858,-37.20866 -43.607858,-50.117579 0,-0.714267 0.07495,-1.409237 0.127422,-2.112297 C 19.986328,102.94817 10,118.84382 10,137.10347 c 5.46671,91.08068 129.63885,91.91057 133.29263,-4.3e-4 z"
     id="path3628"
     style="fill:#000000"
     inkscape:connector-curvature="0"
     sodipodi:nodetypes="ccsasccc" /></svg>