<?xml version="1.0" encoding="UTF-8" standalone="no"?>
<svg id="Capa_1" xmlns:rdf="http://www.w3.org/1999/02/22-rdf-syntax-ns#" xmlns="http://www.w3.org/2000/svg" xml:space="preserve" height="215.73" viewBox="0 0 153.29264 215.72548" width="153.29" version="1.1" y="0px" x="0px" xmlns:cc="http://creativecommons.org/ns#" xmlns:dc="http://purl.org/dc/elements/1.1/"><g id="g3765" transform="matrix(2.0219267,0,0,2.0219267,-18.040085,9.9999985)"><path id="path3767" d="m23.516,22.256c0-12.292,9.964-22.256,22.257-22.256,12.291,0,22.256,9.964,22.256,22.256s-9.965,22.256-22.256,22.256c-12.293,0-22.257-9.964-22.257-22.256zm30.007,12.623c0-2.461-3.472-4.456-7.75-4.456-4.281,0-7.75,1.995-7.75,4.456,0,2.46,3.469,4.455,7.75,4.455,4.278,0,7.75-1.995,7.75-4.455zm-15.584-8.457c3.135,0,4.7283-6.6007,8.2247-6.5147,3.2957,0.08109,4.3053,6.5147,7.4413,6.5147,5.707,0,10.334-3.347,10.334-7.474,0-4.129-6.1145-7.9973-10.334-7.476-3.8274,0.47287-4.9658,8.8594-7.4413,8.8587-2.478-0.001-5.09-8.859-8.225-8.859-5.707,0-10.334,3.347-10.334,7.476,0,4.127,4.627,7.474,10.334,7.474z"/></g><path id="path3628" fill="#000" d="m143.29,137.1c0-18.256-9.9859-34.152-24.774-42.613,0.0436,0.70305,0.11934,1.3976,0.11934,2.1123,0,12.909-18.933,49.713-40.384,50.118-22.141,0.41851-43.608-37.209-43.608-50.118,0-0.71427,0.07495-1.4092,0.12742-2.1123-14.789,8.46-24.775,24.35-24.775,42.61,5.4667,91.081,129.64,91.911,133.29-0.00043z"/></svg>
