<?xml version="1.0" encoding="UTF-8" standalone="no"?>
<svg id="svg3252" xmlns:rdf="http://www.w3.org/1999/02/22-rdf-syntax-ns#" xmlns="http://www.w3.org/2000/svg" viewBox="0 0 161 161" version="1.1" xmlns:cc="http://creativecommons.org/ns#" xmlns:dc="http://purl.org/dc/elements/1.1/">
<g id="layer1" transform="translate(0,-891.36218)">
<g id="layer1-6" transform="matrix(0.73892448,0,0,0.73892448,292.69435,185.9262)">
<g id="g4505" transform="translate(12.08901,347.32252)">
<path id="path2990-7" stroke-linejoin="miter" style="marker-start:none;" d="m-112.86,110.29c0,52.467-42.533,95-95,95s-95-42.533-95-95,42.533-95,95-95,95,42.533,95,95z" transform="matrix(1.0597439,0,0,1.0597439,-78.980157,599.42439)" stroke-dashoffset="1.2" stroke="#5fbcd3" stroke-miterlimit="3.5999999" stroke-dasharray="none" stroke-width="2.83060884" fill="none"/>
<path id="path2994-91" opacity="0.98000004" d="m-21.429,328.14c0,51.284-41.574,92.857-92.857,92.857-51.284,0-92.857-41.574-92.857-92.857,0-51.284,41.574-92.857,92.857-92.857,51.284,0,92.857,41.574,92.857,92.857z" transform="matrix(0.94067154,0,0,0.94067154,-191.75018,407.62436)" fill="#5fbcd3"/>
<g id="g4324" stroke-linejoin="bevel" transform="matrix(0.26817774,-0.30580936,0.30580936,0.26817774,-230.00911,558.27541)" stroke="#FFF" stroke-miterlimit="3.9000001" stroke-dasharray="none" stroke-width="4.65810728" fill="#FFF">
<g id="g4284" stroke-linejoin="bevel" transform="matrix(0.87131977,0,0,0.87131977,-583.04071,62.956817)" stroke="#FFF" stroke-miterlimit="3.9000001" stroke-dasharray="none" stroke-width="5.34603643" fill="#FFF">
<path id="path4286" stroke-linejoin="bevel" d="m523.16,343.72c-2.112,0.049-3.7716,0.21107-4.5,0.40625l-19.562,9.5-29.969,15.531-30.656,15.906c-4.9383-1.6573-11.421-5.7081-14.406-4.2188-0.89175,0.46257-4.7919,2.85-4.9375,3.8438-0.1456,0.99372,0.18464,1.9891,0.90625,2.6875l12.688,12.312c4.6652,3.7082,13.75,0.625,13.75,0.625l30.312-15.719,4.4375,31c0.14315,1.0011,0.75701,1.8809,1.6562,2.3438,0.89924,0.46283,1.9765,0.4657,2.875,0l8.5312-4.4375c0.34897-0.18087,0.65212-0.42896,0.90625-0.71875,0.30269-0.34517,0.52824-0.76792,0.65625-1.2188l12.25-43.188c8.6358-5.2937,26.781-14.562,26.781-14.562,13.762-7.9457-0.056-10.003-9.4688-10.094-0.7844-0.008-1.546-0.0163-2.25,0zm0.53125,2.1875c3.1263,0.0633,6.048,0.78133,1.1875,3.3438l-9.4338,4.7923-2.9412-4.4798,7-3.3125c0.37241-0.17783,2.3117-0.38175,4.1875-0.34375zm-59.212,4.4171c-0.43611,0.0255-0.85898,0.14149-1.25,0.34375l-7.9062,4.0938c-1.0278,0.53259-1.644,1.564-1.6562,2.7188-0.0118,1.1551,0.61012,2.2287,1.625,2.7812l12.344,6.7188,27.406-14.188-30.125-2.4688c-0.1463-0.012-0.29213-0.009-0.4375,0zm32.699,8.1699,1.9688,3.7812-4.4375,2.3125-1.9688-3.7812zm-6.4688,3.0938,2,3.7812-4.4375,2.3125-2-3.7812zm-6.3125,3.1562,2,3.7812-4.4375,2.3125-2-3.7812z" transform="matrix(2.3155871,2.6405183,-2.6405183,2.3155871,84.306643,-2079.0999)" stroke="#FFF" stroke-miterlimit="3.9000001" stroke-dasharray="none" stroke-width="1.52221143" fill="#FFF"/>
</g>
</g>
</g>
</g>
</g>
</svg>
